<svg width="24" height="24" viewBox="0 0 24 24" fill="none"><circle
    cx="12"
    cy="12"
    r="3"
    stroke="#4da1ff"
    stroke-width="2"
  /><path
    d="M22.5102 10.1352L19.9363 9.50352C19.7945 9.05234 19.6141 8.61406 19.3949 8.18867L20.7098 5.99727C20.8645 5.73945 20.8258 5.41719 20.6195 5.21094L18.7891 3.38047C18.5828 3.17422 18.2605 3.13555 18.0027 3.29023L15.8113 4.60508C15.3859 4.38594 14.9477 4.20547 14.4965 4.06367L13.8777 1.48984C13.8004 1.20625 13.5426 1 13.2461 1H10.668C10.3715 1 10.1137 1.20625 10.0363 1.48984L9.41758 4.06367C8.96641 4.20547 8.52813 4.38594 8.10273 4.60508L5.91133 3.29023C5.65352 3.13555 5.33125 3.17422 5.125 3.38047L3.29453 5.21094C3.08828 5.41719 3.04961 5.73945 3.2043 5.99727L4.51914 8.18867C4.3 8.61406 4.11953 9.05234 3.97773 9.50352L1.48984 10.1352C1.20625 10.1996 1 10.4574 1 10.7539V13.332C1 13.6285 1.20625 13.8863 1.48984 13.9508L3.97773 14.5824C4.11953 15.0336 4.3 15.4719 4.51914 15.8973L3.2043 18.0887C3.04961 18.3465 3.08828 18.6688 3.29453 18.875L5.125 20.7055C5.33125 20.9117 5.65352 20.9504 5.91133 20.7957L8.10273 19.4809C8.52813 19.7 8.96641 19.8805 9.41758 20.0223L10.0363 22.5102C10.1137 22.7938 10.3715 23 10.668 23H13.2461C13.5426 23 13.8004 22.7938 13.8777 22.5102L14.4965 20.0223C14.9477 19.8805 15.3859 19.7 15.8113 19.4809L18.0027 20.7957C18.2605 20.9504 18.5828 20.9117 18.7891 20.7055L20.6195 18.875C20.8258 18.6688 20.8645 18.3465 20.7098 18.0887L19.3949 15.8973C19.6141 15.4719 19.7945 15.0336 19.9363 14.5824L22.5102 13.9508C22.7938 13.8863 23 13.6285 23 13.332V10.7539C23 10.4574 22.7938 10.1996 22.5102 10.1352Z"
    stroke="#4da1ff"
    stroke-width="2"
  /></svg>
