<svg width="24" height="23" viewBox="0 0 24 23" fill="none" xmlns="http://www.w3.org/2000/svg">
<path d="M23.5013 17.5994L15.0233 1.75022C13.6612 -0.581856 10.3407 -0.584954 8.9767 1.75022L0.499073 17.5994C-0.893396 19.9824 0.792464 23 3.52167 23H20.478C23.205 23 24.8938 19.9848 23.5013 17.5994ZM12 20.1398C11.2248 20.1398 10.5937 19.4981 10.5937 18.7097C10.5937 17.9213 11.2248 17.2796 12 17.2796C12.7752 17.2796 13.4062 17.9213 13.4062 18.7097C13.4062 19.4981 12.7752 20.1398 12 20.1398ZM13.4062 14.4194C13.4062 15.2077 12.7752 15.8495 12 15.8495C11.2248 15.8495 10.5937 15.2077 10.5937 14.4194V7.26885C10.5937 6.48048 11.2248 5.83874 12 5.83874C12.7752 5.83874 13.4062 6.48048 13.4062 7.26885V14.4194Z" fill="#FFAA5C"/>
</svg>
