<svg width="480" height="120" viewBox="0 0 480 120" fill="none" xmlns="http://www.w3.org/2000/svg">
<rect width="480" height="120" rx="4" fill="#EEF4FD"/>
<path d="M162.5 30.5H308C313.247 30.5 317.5 34.7533 317.5 40V80C317.5 85.2467 313.247 89.5 308 89.5H162.5V30.5Z" fill="white" stroke="#365D82"/>
<rect x="220.5" y="48.4668" width="84" height="27.3333" rx="3.5" fill="#54A3FC" stroke="#1C6CC7"/>
<rect x="220.5" y="45.5" width="84" height="27.3333" rx="3.5" fill="#8ABFFA" stroke="#1C6CC7"/>
<path d="M242.145 60.4492L242.106 60.9856C242.006 62.3565 241.486 63.4772 240.523 64.2977C239.57 65.1143 238.334 65.5 236.864 65.5C235.23 65.5 233.894 64.9499 232.917 63.8189L232.915 63.8167L232.915 63.8167C231.952 62.6897 231.5 61.1763 231.5 59.3369V58.623C231.5 57.4406 231.71 56.3768 232.146 55.4436C232.583 54.5077 233.215 53.7745 234.044 53.2642C234.877 52.7499 235.834 52.5 236.897 52.5C238.347 52.5 239.569 52.8871 240.511 53.7054C241.456 54.5267 241.981 55.6676 242.121 57.0736L242.175 57.623H241.623H239.195H238.733L238.697 57.1622C238.642 56.4707 238.453 56.0713 238.218 55.8549L238.212 55.8498L238.212 55.8497C237.98 55.6304 237.576 55.4733 236.897 55.4733C236.223 55.4733 235.782 55.7036 235.485 56.1261C235.173 56.5744 234.971 57.3414 234.96 58.5129V59.393C234.96 60.6246 235.151 61.4256 235.452 61.8844C235.73 62.2999 236.165 62.5348 236.864 62.5348C237.551 62.5348 237.964 62.3792 238.201 62.1612L242.145 60.4492ZM242.145 60.4492H241.607M242.145 60.4492H241.607M241.607 60.4492H239.179H238.715M241.607 60.4492H238.715M238.715 60.4492L238.68 60.9114M238.715 60.4492L238.68 60.9114M238.68 60.9114C238.632 61.548 238.448 61.9344 238.201 62.1611L238.68 60.9114ZM254.6 62.9064V62.4064H254.1H249.445V53.1604V52.6604H248.945H246.517H246.017V53.1604V64.8396V65.3396H246.517H254.1H254.6V64.8396V62.9064ZM260.564 65.3396H260.923L261.038 64.999L261.733 62.9332H265.272L265.974 65.0004L266.09 65.3396H266.448H269.03H269.753L269.497 64.6629L265.086 52.9838L264.964 52.6604H264.619H262.369H262.022L261.901 52.9846L257.514 64.6638L257.26 65.3396H257.982H260.564ZM276.027 65.3396H276.527V64.8396V53.1604V52.6604H276.027H273.599H273.099V53.1604V64.8396V65.3396H273.599H276.027ZM285.244 52.9922L285.126 52.6604H284.773H281.601H281.101V53.1604V64.8396V65.3396H281.601H284.029H284.529V64.8396V61.6471V61.636L284.528 61.625L284.428 59.3641L286.489 65.011L286.609 65.3396H286.959H288.626H288.975L289.095 65.0112L291.165 59.3498L291.064 61.625L291.064 61.636V61.6471V64.8396V65.3396H291.564H294H294.5V64.8396V53.1604V52.6604H294H290.811H290.458L290.34 52.993L287.799 60.1417L285.244 52.9922ZM262.724 59.984L263.496 57.6782L264.278 59.984H262.724Z" fill="white" stroke="#1C6CC7"/>
<rect x="162" y="31" width="1" height="58" fill="white"/>
<path d="M162.5 45.5H206C207.933 45.5 209.5 47.067 209.5 49V72C209.5 73.933 207.933 75.5 206 75.5H162.5V45.5Z" fill="#F2F6FB" stroke="#7B98B8"/>
<rect x="162" y="46" width="1" height="29" fill="#F2F6FB"/>
<path d="M162.5 0.5H317.5V6C317.5 11.2467 313.247 15.5 308 15.5H162.5V0.5Z" fill="white" stroke="#365D82"/>
<rect x="162" width="1" height="15" fill="white"/>
<rect x="317" width="1.00001" height="154" transform="rotate(90 317 0)" fill="white"/>
<path d="M162.5 119.5H317.5V114C317.5 108.753 313.247 104.5 308 104.5H162.5V119.5Z" fill="white" stroke="#365D82"/>
<rect width="1" height="15" transform="matrix(1 0 0 -1 162 120)" fill="white"/>
<rect width="1.00001" height="154" transform="matrix(-4.37114e-08 -1 -1 4.37114e-08 317 120)" fill="white"/>
<circle cx="310" cy="39" r="14.5" fill="#FF4848" stroke="#973434"/>
<path d="M311.334 44.4668H311.834V43.9668V34V33.5H311.334H311.122H311.035L310.953 33.5293L306.831 35.0059L306.5 35.1246V35.4766V37.083V37.7616L307.148 37.5606L308.858 37.0301V43.9668V44.4668H309.358H311.334Z" fill="white" stroke="#973434"/>
</svg>
