<svg width="176" height="120" viewBox="0 0 176 120" fill="none" xmlns="http://www.w3.org/2000/svg">
<path d="M0.5 30.5H146C151.247 30.5 155.5 34.7533 155.5 40V80C155.5 85.2467 151.247 89.5 146 89.5H0.5V30.5Z" fill="white" stroke="#365D82"/>
<rect x="58.5" y="48.4668" width="84" height="27.3333" rx="3.5" fill="#54A3FC" stroke="#1C6CC7"/>
<rect x="58.5" y="45.5" width="84" height="27.3333" rx="3.5" fill="#8ABFFA" stroke="#1C6CC7"/>
<path d="M80.1449 60.4492L80.1057 60.9856C80.0057 62.3565 79.4859 63.4772 78.5231 64.2977C77.5703 65.1143 76.334 65.5 74.8642 65.5C73.2304 65.5 71.8939 64.9499 70.9166 63.8189L70.9148 63.8167L70.9148 63.8167C69.9521 62.6897 69.5 61.1763 69.5 59.3369V58.623C69.5 57.4406 69.7104 56.3768 70.1458 55.4436C70.5826 54.5077 71.2147 53.7745 72.0443 53.2642C72.8772 52.7499 73.8336 52.5 74.8966 52.5C76.3474 52.5 77.5686 52.8871 78.5105 53.7054C79.4558 54.5267 79.9813 55.6676 80.1208 57.0736L80.1753 57.623H79.6233H77.1952H76.733L76.6967 57.1622C76.6423 56.4707 76.4532 56.0713 76.2176 55.8549L76.212 55.8498L76.212 55.8497C75.9804 55.6304 75.5756 55.4733 74.8966 55.4733C74.2228 55.4733 73.7815 55.7036 73.4853 56.1261C73.1727 56.5744 72.9712 57.3414 72.9604 58.5129V59.393C72.9604 60.6246 73.1512 61.4256 73.452 61.8844C73.7295 62.2999 74.1653 62.5348 74.8642 62.5348C75.5506 62.5348 75.9638 62.3792 76.2014 62.1612L80.1449 60.4492ZM80.1449 60.4492H79.6071M80.1449 60.4492H79.6071M79.6071 60.4492H77.179H76.7155M79.6071 60.4492H76.7155M76.7155 60.4492L76.6804 60.9114M76.7155 60.4492L76.6804 60.9114M76.6804 60.9114C76.6321 61.548 76.4479 61.9344 76.2014 62.1611L76.6804 60.9114ZM92.6003 62.9064V62.4064H92.1003H87.4447V53.1604V52.6604H86.9447H84.5166H84.0166V53.1604V64.8396V65.3396H84.5166H92.1003H92.6003V64.8396V62.9064ZM98.5638 65.3396H98.9232L99.0377 64.999L99.7325 62.9332H103.272L103.974 65.0004L104.09 65.3396H104.448H107.03H107.753L107.497 64.6629L103.086 52.9838L102.964 52.6604H102.619H100.369H100.022L99.9006 52.9846L95.5139 64.6638L95.2601 65.3396H95.982H98.5638ZM114.027 65.3396H114.527V64.8396V53.1604V52.6604H114.027H111.599H111.099V53.1604V64.8396V65.3396H111.599H114.027ZM123.244 52.9922L123.126 52.6604H122.773H119.601H119.101V53.1604V64.8396V65.3396H119.601H122.029H122.529V64.8396V61.6471V61.636L122.528 61.625L122.428 59.3641L124.489 65.011L124.609 65.3396H124.959H126.626H126.975L127.095 65.0112L129.165 59.3498L129.064 61.625L129.064 61.636V61.6471V64.8396V65.3396H129.564H132H132.5V64.8396V53.1604V52.6604H132H128.811H128.458L128.34 52.993L125.799 60.1417L123.244 52.9922ZM100.724 59.984L101.496 57.6782L102.278 59.984H100.724Z" fill="white" stroke="#1C6CC7"/>
<rect y="31" width="1" height="58" fill="white"/>
<path d="M0.5 45.5H44C45.933 45.5 47.5 47.067 47.5 49V72C47.5 73.933 45.933 75.5 44 75.5H0.5V45.5Z" fill="#F2F6FB" stroke="#7B98B8"/>
<rect y="46" width="1" height="29" fill="#F2F6FB"/>
<path d="M0.5 0.5H155.5V6C155.5 11.2467 151.247 15.5 146 15.5H0.5V0.5Z" fill="white" stroke="#365D82"/>
<rect width="1" height="15" fill="white"/>
<rect x="155" width="1.00001" height="154" transform="rotate(90 155 0)" fill="white"/>
<path d="M0.5 119.5H155.5V114C155.5 108.753 151.247 104.5 146 104.5H0.5V119.5Z" fill="white" stroke="#365D82"/>
<rect width="1" height="15" transform="matrix(1 0 0 -1 0 120)" fill="white"/>
<rect width="1.00001" height="154" transform="matrix(-4.37114e-08 -1 -1 4.37114e-08 155 120)" fill="white"/>
<circle cx="148" cy="39" r="14.5" fill="#FF4848" stroke="#973434"/>
<path d="M149.334 44.4668H149.834V43.9668V34V33.5H149.334H149.122H149.035L148.953 33.5293L144.831 35.0059L144.5 35.1246V35.4766V37.083V37.7616L145.148 37.5606L146.858 37.0301V43.9668V44.4668H147.358H149.334Z" fill="white" stroke="#973434"/>
<rect x="0.5" y="0.5" width="175" height="119" rx="9.5" stroke="#365D82"/>
</svg>
