<svg width="480" height="120" viewBox="0 0 480 120" fill="none" xmlns="http://www.w3.org/2000/svg">
<rect x="-4.57764e-05" width="480" height="120" rx="4" fill="#EEF4FD"/>
<path d="M5 55.5002C8.25581 51.1728 13.0077 46.1851 19 41.5334M198.5 77.5C178.474 77.5 168.041 75.1793 153 67.3535M26.2422 36.5002C44.6238 25.1277 71.1634 18.8094 101 36.5002C114.344 44.4118 124.815 50.8733 133.5 56.1283M139.5 59.7306C142.348 61.4232 144.998 62.9661 147.5 64.3707" stroke="#7B98B8"/>
<path d="M467.5 59.4756C463.55 64.7256 457.398 70.9477 449.5 76.3625M274 37.4757C293.353 37.4757 303.747 39.6432 318 46.8524M406 89.4244C395.267 88.9059 383.657 85.6837 371.5 78.4756C348.807 65.0206 334.422 55.7599 323 49.4948M411.5 89.457C423.68 89.0127 434.585 85.1777 443.689 80" stroke="#7B98B8"/>
<rect x="170.5" y="17.5" width="139" height="89" rx="9.5" fill="#DBECFF" stroke="#7B98B8"/>
<rect x="170.5" y="13.5" width="139" height="89" rx="9.5" fill="white" stroke="#7B98B8"/>
<rect x="186.5" y="37.5" width="107" height="9" rx="4.5" fill="#DBECFF" stroke="#7B98B8"/>
<rect x="186.5" y="37.5" width="107" height="7" rx="3.5" fill="white" stroke="#7B98B8"/>
<rect x="258.5" y="30.5" width="19" height="23" rx="3.5" fill="#54A3FC" stroke="#1C6CC7"/>
<rect x="258.5" y="28.5" width="19" height="23" rx="3.5" fill="#8ABFFA" stroke="#1C6CC7"/>
<rect x="263.5" y="32.5" width="3" height="13" rx="1.5" fill="white" stroke="#1C6CC7"/>
<rect x="269.5" y="32.5" width="3" height="13" rx="1.5" fill="white" stroke="#1C6CC7"/>
<rect x="186.5" y="71.5" width="107" height="9" rx="4.5" fill="#DBECFF" stroke="#7B98B8"/>
<rect x="186.5" y="71.5" width="107" height="7" rx="3.5" fill="white" stroke="#7B98B8"/>
<rect x="206.5" y="64.5" width="19" height="23" rx="3.5" fill="#54A3FC" stroke="#1C6CC7"/>
<rect x="206.5" y="62.5" width="19" height="23" rx="3.5" fill="#8ABFFA" stroke="#1C6CC7"/>
<rect x="211.5" y="66.5" width="3" height="13" rx="1.5" fill="white" stroke="#1C6CC7"/>
<rect x="217.5" y="66.5" width="3" height="13" rx="1.5" fill="white" stroke="#1C6CC7"/>
<circle cx="102" cy="41" r="17.5" fill="white" stroke="#7B98B8"/>
<circle cx="102" cy="41" r="12.5" fill="#ED6868" stroke="#973434"/>
<circle cx="102" cy="38" r="12.5" fill="#FFB4B4" stroke="#973434"/>
<path d="M109.5 33C109.5 33.5694 109.321 33.9727 109.015 34.2827C108.695 34.6071 108.202 34.8638 107.522 35.054C106.151 35.4373 104.221 35.5 102 35.5C99.7793 35.5 97.8486 35.4373 96.4778 35.054C95.7975 34.8638 95.3045 34.6071 94.9848 34.2827C94.6792 33.9727 94.5 33.5694 94.5 33C94.5 31.8539 95.2447 30.7406 96.6081 29.8885C97.9646 29.0407 99.8696 28.5 102 28.5C104.13 28.5 106.035 29.0407 107.392 29.8885C108.755 30.7406 109.5 31.8539 109.5 33Z" fill="white" stroke="#973434"/>
<path fill-rule="evenodd" clip-rule="evenodd" d="M63.5461 51.1694L50.8246 55.9324L51.1753 56.8689L63.4169 52.2855L64.8228 56.3389L64.9974 56.8423L65.4887 56.6361L80.423 50.3694L80.0361 49.4473L65.593 55.5079L64.1938 51.4738L64.0259 50.9897L63.5461 51.1694ZM84.4055 71.2466L77.0688 83.7461L77.9312 84.2523L85.2679 71.7528L84.4055 71.2466ZM90.5688 60.7461L87.0688 66.7091L87.9312 67.2153L91.4312 61.2523L90.5688 60.7461ZM118.231 73.6143L113.638 60.8306L112.697 61.1687L117.117 73.4703L113.045 74.8221L112.539 74.99L112.739 75.484L118.806 90.5004L119.734 90.1258L113.866 75.6033L117.918 74.2579L118.404 74.0965L118.231 73.6143Z" fill="#ED6868"/>
<path fill-rule="evenodd" clip-rule="evenodd" d="M417.717 59.3644L429.658 52.8887L429.181 52.0096L417.691 58.2411L415.738 54.4209L415.495 53.9466L415.037 54.2186L401.113 62.4895L401.623 63.3493L415.09 55.3505L417.033 59.1524L417.267 59.6086L417.717 59.3644ZM394.283 42.3632L399.821 28.9695L398.897 28.5874L393.358 41.9811L394.283 42.3632ZM389.63 53.6148L392.272 47.2252L391.348 46.8431L388.706 53.2326L389.63 53.6148ZM360.454 44.6937L366.77 56.7198L367.656 56.2549L361.578 44.6824L365.424 42.7807L365.901 42.5445L365.635 42.0829L357.55 28.0493L356.684 28.5485L364.503 42.1204L360.675 44.0131L360.216 44.2402L360.454 44.6937Z" fill="#66C8C5"/>
<circle cx="378" cy="79" r="17.5" fill="white" stroke="#7B98B8"/>
<circle cx="378" cy="79" r="12.5" fill="#66C8C5" stroke="#4DA9A6"/>
<circle cx="378" cy="76" r="12.5" fill="#B8F4F2" stroke="#4DA9A6"/>
<path d="M385.5 71C385.5 71.5694 385.321 71.9727 385.015 72.2827C384.695 72.6071 384.202 72.8638 383.522 73.054C382.151 73.4373 380.221 73.5 378 73.5C375.779 73.5 373.849 73.4373 372.478 73.054C371.798 72.8638 371.305 72.6071 370.985 72.2827C370.679 71.9727 370.5 71.5694 370.5 71C370.5 69.8539 371.245 68.7406 372.608 67.8885C373.965 67.0407 375.87 66.5 378 66.5C380.13 66.5 382.035 67.0407 383.392 67.8885C384.755 68.7406 385.5 69.8539 385.5 71Z" fill="white" stroke="#53B0AE"/>
</svg>
