<?xml version="1.0" standalone="no"?>
<!DOCTYPE svg PUBLIC "-//W3C//DTD SVG 20010904//EN"
 "http://www.w3.org/TR/2001/REC-SVG-20010904/DTD/svg10.dtd">
<svg version="1.0" xmlns="http://www.w3.org/2000/svg"
 width="512.000000pt" height="512.000000pt" viewBox="0 0 512.000000 512.000000"
 preserveAspectRatio="xMidYMid meet">
<metadata>
Created by potrace 1.11, written by Peter Selinger 2001-2013
</metadata>
<g transform="translate(0.000000,512.000000) scale(0.100000,-0.100000)"
fill="#000000" stroke="none">
<path d="M160 4201 c-54 -20 -115 -78 -140 -134 -18 -40 -19 -100 -19 -1392
-1 -1458 -3 -1390 52 -1508 36 -74 128 -168 207 -211 133 -71 -48 -66 2315
-63 1172 1 2144 6 2160 10 61 16 160 69 213 114 67 58 116 131 147 219 l24 69
0 1348 c1 957 -2 1360 -10 1391 -13 52 -75 123 -132 150 -59 27 -135 32 -198
11 -58 -19 -95 -54 -309 -285 -58 -62 -127 -136 -155 -165 -27 -29 -99 -106
-160 -171 -60 -64 -132 -140 -158 -168 -27 -28 -88 -94 -136 -146 -49 -52
-106 -113 -127 -136 -22 -22 -97 -103 -169 -179 -71 -76 -147 -157 -168 -179
-21 -22 -82 -87 -135 -145 -53 -57 -120 -128 -147 -157 -28 -28 -93 -98 -145
-155 -268 -290 -297 -312 -410 -312 -109 0 -139 21 -365 264 -38 42 -127 136
-196 210 -69 74 -137 146 -150 160 -23 25 -220 236 -304 325 -61 64 -259 275
-291 310 -16 16 -81 85 -144 153 -63 67 -126 135 -140 150 -33 36 -263 280
-323 345 -27 28 -88 93 -135 144 -110 119 -154 146 -241 148 -41 1 -83 -4
-111 -15z"/>
</g>
</svg>
