<svg width="434" height="434" viewBox="0 0 434 434" fill="none" xmlns="http://www.w3.org/2000/svg">
<path d="M85.0201 315.837H65.9479V59.5059H45.265V315.837H26.1504V40.4336H85.0201V315.837ZM407.85 315.837H388.735V59.5059H368.095V315.837H348.98V40.4336H407.85V315.837Z" fill="white"/>
<path d="M368.095 70.2709V46.2822H349.023V70.2709C349.023 139.482 289.814 195.766 217.043 195.766C144.271 195.766 85.0625 139.482 85.0625 70.2709V48.2742H65.9902V70.2709C65.9902 115.366 87.7326 155.715 121.639 182.246V268.156H75.484V287.229H358.559V268.156H308.378V185.128C344.572 158.724 368.095 117.104 368.095 70.2709ZM140.669 194.834C160.504 206.023 183.179 212.931 207.464 214.415V268.156H140.669V194.834ZM289.305 268.156H226.579V214.372C249.169 213.016 270.487 207.04 289.305 197.165V268.156Z" fill="white"/>
<path d="M368.433 346.649C368.433 361.526 354.828 373.647 338.045 373.647C321.304 373.647 307.656 361.526 307.656 346.649H287.737C287.737 361.526 274.132 373.647 257.348 373.647C240.607 373.647 226.96 361.526 226.96 346.649H207.04C207.04 361.526 193.435 373.647 176.651 373.647C159.868 373.647 146.263 361.526 146.263 346.649H126.3C126.3 361.526 112.696 373.647 95.9119 373.647C79.1283 373.647 65.5234 361.526 65.5234 346.649H45.6035C45.6035 372.545 68.1512 393.61 95.9119 393.61C112.526 393.61 127.148 385.981 136.345 374.325C145.5 385.938 160.164 393.61 176.778 393.61C193.35 393.61 207.93 386.023 217.127 374.453C226.281 386.023 240.904 393.61 257.475 393.61C274.047 393.61 288.627 386.023 297.824 374.453C306.978 386.023 321.6 393.61 338.172 393.61C365.89 393.61 388.48 372.545 388.48 346.649H368.433Z" fill="white"/>
</svg>
