<svg width="480" height="120" viewBox="0 0 480 120" fill="none" xmlns="http://www.w3.org/2000/svg">
<rect width="480" height="120" rx="4" fill="#EEF4FD"/>
<rect x="150.5" y="33.5" width="179" height="59" rx="5.5" fill="#54A3FC" stroke="#1C6CC7"/>
<rect x="150.5" y="27.5" width="179" height="59" rx="5.5" fill="#8ABFFA" stroke="#1C6CC7"/>
<path d="M212.205 59.635L212.244 59.0989H211.706H208.495H208.031L207.996 59.5614C207.93 60.4361 207.677 60.9984 207.31 61.339C206.954 61.6684 206.361 61.8797 205.433 61.8797C204.468 61.8797 203.836 61.549 203.432 60.9395C203.007 60.286 202.754 59.1768 202.754 57.5241V56.3498C202.768 54.7747 203.036 53.7102 203.479 53.0709C203.906 52.4563 204.543 52.131 205.476 52.131C206.394 52.131 206.977 52.3448 207.325 52.6772L207.325 52.6773L207.331 52.6824C207.686 53.0108 207.944 53.5924 208.018 54.5362L208.054 54.9973H208.516H211.728H212.279L212.225 54.4483C212.044 52.6085 211.364 51.13 210.152 50.0677C208.942 49.008 207.367 48.5 205.476 48.5C204.096 48.5 202.86 48.8269 201.787 49.4951C200.719 50.1574 199.903 51.1093 199.338 52.3301C198.775 53.5481 198.5 54.9411 198.5 56.4973V57.4492C198.5 59.8742 199.091 61.8486 200.331 63.3125L200.331 63.3125L200.333 63.3147C201.59 64.7813 203.311 65.5 205.433 65.5C207.35 65.5 208.946 64.9933 210.17 63.9349C211.405 62.8735 212.075 61.4233 212.205 59.635ZM228.729 62.2086V61.7086H228.229H221.911V49.2139V48.7139H221.411H218.199H217.699V49.2139V64.7861V65.2861H218.199H228.229H228.729V64.7861V62.2086ZM236.778 65.2861H237.138L237.252 64.9443L238.209 62.0775H243.12L244.086 64.9458L244.201 65.2861H244.56H247.975H248.696L248.443 64.6107L242.609 49.0385L242.487 48.7139H242.141H239.165H238.818L238.697 49.0393L232.895 64.6115L232.643 65.2861H233.363H236.778ZM257.23 65.2861H257.73V64.7861V49.2139V48.7139H257.23H254.018H253.518V49.2139V64.7861V65.2861H254.018H257.23ZM269.268 49.0469L269.15 48.7139H268.797H264.601H264.101V49.2139V64.7861V65.2861H264.601H267.812H268.312V64.7861V60.5294V60.5185L268.312 60.5075L268.134 56.4368L271.217 64.9563L271.336 65.2861H271.687H273.892H274.243L274.362 64.9565L277.457 56.4198L277.278 60.5076L277.278 60.5185V60.5294V64.7861V65.2861H277.778H281H281.5V64.7861V49.2139V48.7139H281H276.782H276.429L276.311 49.0476L272.799 59.0079L269.268 49.0469ZM239.409 58.4786L240.656 54.727L241.916 58.4786H239.409Z" fill="white" stroke="#1C6CC7"/>
<path fill-rule="evenodd" clip-rule="evenodd" d="M111.323 21L124.323 32L124.714 32.3309L124.374 32.7139L120.728 36.8157L136.308 48.9877L135.692 49.7757L119.692 37.2757L119.272 36.9477L119.626 36.5495L123.286 32.4324L110.677 21.7634L111.323 21ZM135.677 70L122.677 81L122.286 81.3309L122.626 81.7139L126.272 85.8157L110.692 97.9877L111.308 98.7757L127.308 86.2757L127.728 85.9477L127.374 85.5495L123.714 81.4324L136.323 70.7634L135.677 70ZM96.5 58.8817H89V59.8817H96.5V58.8817ZM136 58.8817H103.5V59.8817H136V58.8817Z" fill="#1C6CC7"/>
<path fill-rule="evenodd" clip-rule="evenodd" d="M368.999 21L355.999 32L355.608 32.3309L355.949 32.7139L359.595 36.8157L344.014 48.9877L344.63 49.7757L360.63 37.2757L361.05 36.9477L360.696 36.5495L357.036 32.4324L369.645 21.7634L368.999 21ZM344.645 70L357.645 81L358.036 81.3309L357.696 81.7139L354.05 85.8157L369.63 97.9877L369.014 98.7757L353.014 86.2757L352.595 85.9477L352.949 85.5495L356.608 81.4324L343.999 70.7634L344.645 70ZM383.822 58.8817H391.322V59.8817H383.822V58.8817ZM344.322 58.8817H376.822V59.8817H344.322V58.8817Z" fill="#1C6CC7"/>
</svg>
