<svg width="486" height="129" viewBox="0 0 486 129" fill="none" xmlns="http://www.w3.org/2000/svg">
<rect x="3" y="8" width="480" height="120" rx="4" fill="#EEF4FD"/>
<circle cx="239.284" cy="61.8194" r="39.5" transform="rotate(-15 239.284 61.8194)" fill="#98E1DF" stroke="#4DA9A6"/>
<path d="M290.14 48.0061C297.653 76.0448 281.014 104.865 252.975 112.378C240.87 115.622 228.619 114.363 218 109.629M188.603 75.2129C191.045 84.3251 195.737 92.2334 201.921 98.5M207 103.02C207.975 103.781 208.976 104.507 210 105.197" stroke="#4DA9A6"/>
<circle cx="237.99" cy="56.9893" r="39.5" transform="rotate(-15 237.99 56.9893)" fill="#EAFFFE" stroke="#4DA9A6"/>
<circle cx="237.99" cy="56.9899" r="34.5" transform="rotate(-15 237.99 56.9899)" fill="white" stroke="#4DA9A6"/>
<path d="M230.485 43.4711L219.619 46.3828L221.074 51.8161L231.941 48.9044L230.485 43.4711Z" fill="#4DA9A6"/>
<path d="M248.596 38.6182L237.73 41.53L239.185 46.9633L250.052 44.0516L248.596 38.6182Z" fill="#4DA9A6"/>
<path d="M244.038 65.0744L249.472 63.6185L248.016 58.1852L253.449 56.7294L256.361 67.596L245.494 70.5077L244.038 65.0744Z" fill="#4DA9A6"/>
<path d="M236.794 67.0155L231.361 68.4714L229.905 63.0381L224.471 64.4939L227.383 75.3606L238.25 72.4489L236.794 67.0155Z" fill="#4DA9A6"/>
<circle cx="131.742" cy="87.3654" r="29.5" transform="rotate(15 131.742 87.3654)" fill="#C0CBF6" stroke="#5A74DA"/>
<path d="M166.954 104.289C177.947 85.2476 171.423 60.8998 152.382 49.9064C145.644 46.0159 138.241 44.3193 131 44.5949M109.304 52.0001C113.168 49.2383 117.476 47.21 122 45.9761" stroke="#5A74DA"/>
<circle cx="132.713" cy="83.7433" r="29.5" transform="rotate(15 132.713 83.7433)" fill="#EFF2FF" stroke="#5A74DA"/>
<circle cx="132.89" cy="84.049" r="25.75" transform="rotate(15 132.89 84.049)" fill="white" stroke="#5A74DA"/>
<path d="M136.333 70.2189L135.97 70.8133L130.953 89.5372L131.092 89.7776L141.16 86.969L136.333 70.2189Z" fill="#5A74DA"/>
<path d="M136.334 70.2195L123.779 82.3119L131.094 89.7783L133.529 80.6902L136.334 70.2195Z" fill="#5A74DA"/>
<path d="M130.652 91.4203L130.51 91.5222L128.723 98.192L128.746 98.5332L140.725 88.6158L130.652 91.4203Z" fill="#5A74DA"/>
<path d="M128.748 98.5336L130.654 91.4207L123.338 83.957L128.748 98.5336Z" fill="#5A74DA"/>
<path d="M123.776 82.3217L131.091 89.788L133.526 80.7L123.776 82.3217Z" fill="#5A74DA"/>
<circle cx="50.8558" cy="49.2288" r="29.5" transform="rotate(-30 50.8558 49.2288)" fill="#9BB5FB" stroke="#2A5ADA"/>
<path d="M84.403 31.001C86.7941 35.1423 88.3246 39.5443 89.0501 44M17.9999 69.3389C28.5866 87.6756 52.0337 93.9582 70.3704 83.3715C81.3124 77.0542 87.9621 66.1575 89.2965 54.5" stroke="#2A5ADA"/>
<circle cx="48.9808" cy="45.9808" r="29.5" transform="rotate(-30 48.9808 45.9808)" fill="#F4F7FF" stroke="#2A5ADA"/>
<circle cx="49.3223" cy="46.073" r="25.75" transform="rotate(-30 49.3223 46.073)" fill="white" stroke="#2A5ADA"/>
<path fill-rule="evenodd" clip-rule="evenodd" d="M35.1027 45.9434L42.1972 33.7314L56.3203 33.6934L63.2917 45.7682L56.2471 57.9513L42.0741 58.0182L35.1027 45.9434ZM45.1402 38.8288L53.2844 38.8116L57.3416 45.8387L53.2545 52.8832L45.0603 52.9293L41.0032 45.9021L45.1402 38.8288Z" fill="#2A5ADA"/>
<circle cx="432.713" cy="52.3655" r="29.5" transform="rotate(-15 432.713 52.3655)" fill="#FDC2A3" stroke="#FF5700"/>
<path d="M394.5 72.4922C406.367 93.0468 432.65 100.089 453.205 88.2221C456.489 86.3262 459.428 84.0623 462 81.5125M473.514 61C472.279 66.1595 470.096 71.087 467.04 75.5" stroke="#FF5700"/>
<circle cx="431.742" cy="48.7435" r="29.5" transform="rotate(-15 431.742 48.7435)" fill="#FFEEE6" stroke="#FF5700"/>
<circle cx="432.049" cy="48.92" r="25.75" transform="rotate(-15 432.049 48.92)" fill="white" stroke="#FF5700"/>
<path fill-rule="evenodd" clip-rule="evenodd" d="M427.295 54.3808L420.554 61.0778L427.372 35.4204L429.84 44.6292L427.295 54.3808ZM438.412 51.402L447.599 53.8309L428.866 35.0202L431.333 44.2291L438.412 51.402ZM421.769 62.2964L428.466 55.5546L438.218 53.0102L447.427 55.4777L421.769 62.2964Z" fill="#FF5700"/>
<circle cx="337.742" cy="86.3654" r="29.5" transform="rotate(15 337.742 86.3654)" fill="#FFD2A8" stroke="#FFA553"/>
<path d="M375.203 103.733C377.282 100.131 378.763 96.3487 379.677 92.5M318.214 46.7578C330.694 39.5633 346.564 39.0373 359.937 46.7578C373.961 54.8547 381.504 69.8664 380.746 85" stroke="#FFA553"/>
<circle cx="338.713" cy="82.7433" r="29.5" transform="rotate(15 338.713 82.7433)" fill="#FFF3E9" stroke="#FFA553"/>
<circle cx="338.89" cy="83.049" r="25.75" transform="rotate(15 338.89 83.049)" fill="white" stroke="#FFA553"/>
<path fill-rule="evenodd" clip-rule="evenodd" d="M329.167 75.8692L331.967 76.6196L333.735 70.0209L342.526 72.3763C343.921 72.8217 347.044 74.3413 348.371 76.8572C349.698 79.373 349.931 80.8899 349.881 81.3338L352.37 82.0009L351.728 84.4004L349.783 83.8793C349.764 84.103 349.694 84.6784 349.556 85.1903C349.419 85.7022 349.2 86.2092 349.108 86.3988L351.052 86.9199L350.431 89.2394L347.942 88.5724C347.154 89.7474 344.859 92.2042 341.976 92.6319C339.093 93.0597 337.131 92.7195 336.51 92.496L328.303 90.2969L330.049 83.7782L327.249 83.0278L327.87 80.7082L330.671 81.4586L331.346 78.9391L328.545 78.1887L329.167 75.8692ZM341.969 74.4563L335.395 72.6949L334.206 77.1341L347.353 80.6568C347.122 79.6519 346.97 79.131 346.076 77.4858C345.183 75.8405 342.966 74.7806 341.969 74.4563ZM347.371 83.2335L333.563 79.5336L332.888 82.0531L346.696 85.753C346.801 85.5669 347.047 85.0668 347.184 84.5549C347.321 84.043 347.366 83.4607 347.371 83.2335ZM331.066 88.8517L332.266 84.3726L345.413 87.8953C344.807 88.7045 343.013 90.3812 340.683 90.6141C338.454 90.8367 337.598 90.6041 337.12 90.4739L337.056 90.4568L331.066 88.8517Z" fill="#FFA553"/>
</svg>
