<svg width="14" height="14" viewBox="0 0 14 14" fill="none" xmlns="http://www.w3.org/2000/svg">
<path d="M4 0C3.44769 0 3 0.447723 3 1H1C0.447723 1 0 1.44772 0 2C0 2.55228 0.447723 3 1 3H3C3 3.55228 3.44769 4 4 4C4.55231 4 5 3.55228 5 3V1C5 0.447723 4.55231 0 4 0Z" fill="#53A4FF"/>
<path d="M6 2C6 1.44772 6.44769 1 7 1H13C13.5523 1 14 1.44772 14 2C14 2.55228 13.5523 3 13 3H7C6.44769 3 6 2.55228 6 2Z" fill="#53A4FF"/>
<path d="M7 5C6.44769 5 6 5.44772 6 6H1C0.447723 6 0 6.44772 0 7C0 7.55228 0.447723 8 1 8H6C6 8.55228 6.44769 9 7 9C7.55231 9 8 8.55228 8 8V6C8 5.44772 7.55231 5 7 5Z" fill="#53A4FF"/>
<path d="M9 7C9 6.44772 9.44769 6 10 6H13C13.5523 6 14 6.44772 14 7C14 7.55228 13.5523 8 13 8H10C9.44769 8 9 7.55228 9 7Z" fill="#53A4FF"/>
<path d="M9 11C9 10.4477 9.44769 10 10 10C10.5523 10 11 10.4477 11 11V13C11 13.5523 10.5523 14 10 14C9.44769 14 9 13.5523 9 13H1C0.447723 13 0 12.5523 0 12C0 11.4477 0.447723 11 1 11H9Z" fill="#53A4FF"/>
<path d="M13 11C12.4477 11 12 11.4477 12 12C12 12.5523 12.4477 13 13 13C13.5523 13 14 12.5523 14 12C14 11.4477 13.5523 11 13 11Z" fill="#53A4FF"/>
</svg>
