<svg width="72" height="72" viewBox="0 0 72 72" fill="none" xmlns="http://www.w3.org/2000/svg">
<path fill-rule="evenodd" clip-rule="evenodd" d="M36 70C54.7777 70 70 54.7777 70 36C70 17.2223 54.7777 2 36 2C17.2223 2 2 17.2223 2 36C2 54.7777 17.2223 70 36 70ZM72 36C72 55.8823 55.8823 72 36 72C16.1177 72 0 55.8823 0 36C0 16.1177 16.1177 0 36 0C55.8823 0 72 16.1177 72 36Z" fill="white"/>
<path fill-rule="evenodd" clip-rule="evenodd" d="M57.7288 27.1507V39.1059H21.2881L19.7203 39.106C21.3797 46.3599 27.9653 51.7783 35.8368 51.7783C42.3444 51.7783 47.9731 48.0749 50.666 42.6926L57.7288 42.6925V52.7347C57.7288 55.1117 55.771 57.0386 53.3559 57.0386H18.3729C15.9578 57.0386 14 55.1117 14 52.7347V27.1507H57.7288ZM46.4719 42.6926C44.1528 46.0296 40.2546 48.2195 35.8368 48.2195C31.4189 48.2195 27.5207 46.0296 25.2017 42.6926H46.4719ZM26.5113 30.0199C23.0844 30.0199 20.2494 32.514 19.7779 35.7584L23.5054 35.7585C23.9152 34.5097 25.1061 33.6065 26.5113 33.6065C27.9165 33.6065 29.1073 34.5097 29.5172 35.7585L33.2447 35.7584C32.7732 32.514 29.9382 30.0199 26.5113 30.0199ZM45.2175 30.0199C41.7906 30.0199 38.9556 32.514 38.4841 35.7584L42.2116 35.7585C42.6215 34.5097 43.8123 33.6065 45.2175 33.6065C46.6227 33.6065 47.8136 34.5097 48.2234 35.7585L51.9509 35.7584C51.4794 32.514 48.6444 30.0199 45.2175 30.0199ZM53.3559 14C55.771 14 57.7288 15.9269 57.7288 18.3039V23.5641H14V18.3039C14 15.9269 15.9578 14 18.3729 14H53.3559Z" fill="white"/>
</svg>
