<svg width="181" height="32" viewBox="0 0 181 32" fill="none" xmlns="http://www.w3.org/2000/svg">
<path d="M16 32C24.8366 32 32 24.8366 32 16C32 7.16344 24.8366 0 16 0C7.16344 0 0 7.16344 0 16C0 24.8366 7.16344 32 16 32Z" fill="#1C68F3"/>
<path fill-rule="evenodd" clip-rule="evenodd" d="M25.6577 12.0674V17.3808H9.46183L8.76501 17.3809C9.50252 20.6048 12.4295 23.013 15.9279 23.013C18.8202 23.013 21.3218 21.3671 22.5186 18.9749L25.6577 18.9749V23.4381C25.6577 24.4945 24.7875 25.3509 23.7142 25.3509H8.16616C7.09279 25.3509 6.22266 24.4945 6.22266 23.4381V12.0674H25.6577ZM20.6546 18.9749C19.6239 20.458 17.8914 21.4313 15.9279 21.4313C13.9644 21.4313 12.2319 20.458 11.2012 18.9749H20.6546ZM11.7832 13.3426C10.2602 13.3426 9.00018 14.4511 8.79062 15.8931L10.4473 15.8931C10.6294 15.3381 11.1587 14.9366 11.7832 14.9366C12.4078 14.9366 12.937 15.3381 13.1192 15.8931L14.7758 15.8931C14.5663 14.4511 13.3063 13.3426 11.7832 13.3426ZM20.0971 13.3426C18.5741 13.3426 17.3141 14.4511 17.1045 15.8931L18.7612 15.8931C18.9433 15.3381 19.4726 14.9366 20.0971 14.9366C20.7216 14.9366 21.2509 15.3381 21.4331 15.8931L23.0897 15.8931C22.8802 14.4511 21.6202 13.3426 20.0971 13.3426ZM23.7142 6.22266C24.7875 6.22266 25.6577 7.07906 25.6577 8.13548V10.4734H6.22266V8.13548C6.22266 7.07906 7.09279 6.22266 8.16616 6.22266H23.7142Z" fill="white"/>
<path d="M59.056 5.68H56.032L50.248 14.392L44.44 5.68H41.44V22H45.496L45.472 13.768L49.12 19.408V19.432H51.376V19.408L55 13.816V22H59.056V5.68ZM73.6604 10.36H69.7724V10.984C68.9084 10.432 67.8524 10.096 66.5804 10.096C63.4364 10.096 60.7964 12.688 60.7964 16.168C60.7964 19.624 63.4364 22.24 66.5804 22.24C67.8524 22.24 68.9084 21.904 69.7724 21.352V22H73.6604V10.36ZM67.3484 19.048C65.7644 19.048 64.6124 17.776 64.6124 16.168C64.6124 14.56 65.7644 13.264 67.3484 13.264C68.2124 13.264 69.0524 13.528 69.7724 14.368V17.968C69.0524 18.808 68.2124 19.048 67.3484 19.048ZM75.0289 17.992C75.2689 21.088 77.7409 22.36 80.7889 22.36C83.8129 22.36 86.2369 21.112 86.2369 18.424C86.2369 16.36 84.7969 15.304 82.6129 14.896L80.4289 14.536C79.5169 14.368 79.2289 14.008 79.2289 13.624C79.2289 13.168 79.6849 12.784 80.6929 12.784C81.7729 12.784 82.5889 13.192 82.6609 14.08H86.1169C85.9489 11.008 83.1409 10.048 80.6689 10.048C77.5729 10.048 75.4849 11.488 75.4849 13.936C75.4849 15.976 76.8769 17.104 78.8929 17.44L81.2449 17.848C82.0129 17.968 82.3729 18.28 82.3729 18.664C82.3729 19.168 81.7489 19.48 80.7169 19.48C79.4929 19.48 78.6529 19.024 78.4849 18.016L75.0289 17.992ZM93.3766 17.968L96.1606 22H100.817L96.0166 15.112L100.433 10.36H95.8006L91.7446 14.728V4.96H87.8566V22H91.7446V19.72L93.3766 17.968ZM118.924 13.6C120.364 13.096 121.204 11.536 121.204 10.024C121.204 7.36 119.116 5.68 115.588 5.68H107.524V22H116.068C119.74 22 121.924 20.176 121.924 17.464C121.924 15.712 120.916 14.032 118.924 13.6ZM111.58 8.992H114.964C116.524 8.992 117.316 9.544 117.316 10.576C117.316 11.632 116.476 12.328 114.964 12.328H111.58V8.992ZM111.58 18.64V15.424H115.612C117.1 15.424 117.94 15.928 117.94 16.936C117.94 17.896 117.196 18.64 115.54 18.64H111.58ZM131.484 10.168C129.756 10.168 128.508 10.72 127.476 11.608V10.36H123.588V22H127.476V15.352C128.388 14.44 129.588 13.936 131.484 13.864V10.168ZM134.968 8.536C136.216 8.536 137.248 7.6 137.248 6.352C137.248 5.08 136.216 4.144 134.968 4.144C133.696 4.144 132.688 5.08 132.688 6.352C132.688 7.6 133.696 8.536 134.968 8.536ZM136.936 10.36H133.048V22H136.936V10.36ZM151.441 4.96H147.553V11.032C146.689 10.48 145.633 10.144 144.361 10.144C141.217 10.144 138.577 12.736 138.577 16.192C138.577 19.672 141.217 22.288 144.361 22.288C145.633 22.288 146.689 21.952 147.553 21.4V22H151.441V4.96ZM145.129 19.096C143.545 19.096 142.393 17.824 142.393 16.192C142.393 14.608 143.545 13.312 145.129 13.312C145.993 13.312 146.833 13.576 147.553 14.416V18.016C146.833 18.856 145.993 19.096 145.129 19.096ZM165.846 10.36H161.958V10.816C161.094 10.288 160.062 9.952 158.79 9.952C155.646 9.952 153.006 12.376 153.006 15.928C153.006 19.072 155.646 21.592 158.79 21.592C160.062 21.592 161.094 21.28 161.958 20.776V21.88C161.958 23.464 160.926 24.28 159.606 24.28C158.166 24.28 157.35 23.608 157.158 22.528H153.318C153.51 25.552 156.078 27.568 159.606 27.568C163.254 27.568 165.846 25.456 165.846 21.808V10.36ZM159.558 18.496C157.974 18.496 156.822 17.2 156.822 15.928C156.822 14.248 157.974 13.12 159.558 13.12C160.398 13.12 161.238 13.384 161.958 14.2V17.416C161.238 18.232 160.398 18.496 159.558 18.496ZM179.573 15.928C179.573 12.424 177.005 10.096 173.621 10.096C169.901 10.096 167.429 12.64 167.429 16.168C167.429 19.72 169.973 22.264 173.789 22.264C176.669 22.264 178.901 20.752 179.453 18.352H175.613C175.277 18.88 174.653 19.192 173.837 19.192C172.349 19.192 171.533 18.376 171.221 17.32H179.525L179.501 17.248C179.573 16.816 179.573 16.36 179.573 15.928ZM173.621 13.096C174.869 13.096 175.709 13.768 175.925 15.04H171.173C171.461 13.864 172.301 13.096 173.621 13.096Z" fill="#1C68F3"/>
</svg>
