<svg width="22" height="22" viewBox="0 0 22 22" fill="none" xmlns="http://www.w3.org/2000/svg">
<path fill-rule="evenodd" clip-rule="evenodd" d="M16.8311 2.88775C20.4461 6.50278 20.667 12.2267 17.4938 16.0995L21.7112 20.3169C22.0962 20.7019 22.0963 21.3262 21.7112 21.7112C21.3262 22.0963 20.7019 22.0962 20.3169 21.7112L16.0995 17.4938C12.2267 20.667 6.50278 20.4461 2.88775 16.8311C-0.962588 12.9807 -0.962577 6.73807 2.88775 2.88775C6.73807 -0.962577 12.9807 -0.962588 16.8311 2.88775ZM15.4367 15.4367C18.517 12.3565 18.517 7.36235 15.4367 4.28208C12.3565 1.20181 7.36235 1.20181 4.28208 4.28208C1.20181 7.36235 1.20181 12.3565 4.28208 15.4367C7.36235 18.517 12.3565 18.517 15.4367 15.4367Z" fill="#A0B6D7"/>
</svg>
