<svg width="16" height="10" viewBox="0 0 16 10" fill="none" xmlns="http://www.w3.org/2000/svg">
<path fill-rule="evenodd" clip-rule="evenodd" d="M10.2968 0.292893C10.6873 -0.0976311 11.3205 -0.0976311 11.711 0.292893L15.6967 4.27854C15.8838 4.46026 16 4.71452 16 4.99594C16 5.30003 15.8643 5.57242 15.6501 5.75583L11.7107 9.69524C11.3202 10.0858 10.687 10.0858 10.2965 9.69524C9.90594 9.30471 9.90594 8.67155 10.2965 8.28102L12.5815 5.99594H1C0.447715 5.99594 0 5.54823 0 4.99594C0 4.44366 0.447715 3.99594 1 3.99594H12.5856L10.2968 1.70711C9.90628 1.31658 9.90627 0.683417 10.2968 0.292893Z" fill="white"/>
</svg>
